<svg xmlns="http://www.w3.org/2000/svg" width="1400" height="760" viewBox="0 0 1400 760">
<defs><linearGradient id="hero" x1="0" y1="0" x2="1" y2="1"><stop offset="0%" stop-color="#24143d"/><stop offset="58%" stop-color="#6f42c1"/><stop offset="100%" stop-color="#9b59b6"/></linearGradient></defs>
<rect width="1400" height="760" rx="26" fill="#f6f7fb"/>
<rect x="28" y="28" width="1344" height="145" rx="22" fill="url(#hero)"/>
<text x="70" y="92" font-family="Arial, sans-serif" font-size="42" font-weight="700" fill="#fff">DataPulse Spain</text>
<text x="70" y="132" font-family="Arial, sans-serif" font-size="21" fill="#eee">Benchmark macroeconómico de España y Europa</text>
<g font-family="Arial, sans-serif">
<rect x="28" y="198" width="312" height="112" rx="18" fill="#fff"/><rect x="362" y="198" width="312" height="112" rx="18" fill="#fff"/><rect x="696" y="198" width="312" height="112" rx="18" fill="#fff"/><rect x="1030" y="198" width="342" height="112" rx="18" fill="#fff"/>
<text x="52" y="232" font-size="17" fill="#666">PIB per cápita</text><text x="52" y="278" font-size="32" font-weight="700" fill="#222">$32,677</text>
<text x="386" y="232" font-size="17" fill="#666">Crecimiento PIB</text><text x="386" y="278" font-size="32" font-weight="700" fill="#222">+2.5%</text>
<text x="720" y="232" font-size="17" fill="#666">Desempleo</text><text x="720" y="278" font-size="32" font-weight="700" fill="#222">12.2%</text>
<text x="1054" y="232" font-size="17" fill="#666">Inflación</text><text x="1054" y="278" font-size="32" font-weight="700" fill="#222">3.4%</text>
<rect x="28" y="334" width="870" height="380" rx="20" fill="#fff"/><text x="56" y="376" font-size="22" font-weight="700" fill="#222">Evolución · PIB per cápita</text>
<line x1="86" y1="650" x2="850" y2="650" stroke="#d5d8e2"/><line x1="86" y1="420" x2="86" y2="650" stroke="#d5d8e2"/>
<polyline points="95,604 220,566 350,532 480,494 610,452 740,420 840,390" fill="none" stroke="#6f42c1" stroke-width="6"/>
<polyline points="95,628 220,602 350,575 480,548 610,520 740,493 840,470" fill="none" stroke="#9b59b6" stroke-width="4" opacity=".7"/>
<rect x="922" y="334" width="450" height="380" rx="20" fill="#fff"/><text x="950" y="376" font-size="22" font-weight="700" fill="#222">Comparativa europea</text><text x="950" y="408" font-size="15" fill="#777">España · Portugal · Francia · Italia · Alemania</text>
<rect x="960" y="455" width="330" height="28" rx="8" fill="#6f42c1"/><rect x="960" y="505" width="245" height="28" rx="8" fill="#8c67ce"/><rect x="960" y="555" width="370" height="28" rx="8" fill="#5a36a1"/><rect x="960" y="605" width="275" height="28" rx="8" fill="#a381dd"/><rect x="960" y="655" width="395" height="28" rx="8" fill="#452780"/>
</g></svg>